<svg width="25" height="24" viewBox="0 0 25 24" fill="none" xmlns="http://www.w3.org/2000/svg">
<rect width="24" height="24" transform="translate(0.5)" fill="white" fill-opacity="0.01" style="mix-blend-mode:multiply"/>
<path d="M5 22.5H14C14.3977 22.4995 14.779 22.3414 15.0602 22.0602C15.3414 21.7789 15.4995 21.3977 15.5 21V18.75H14V21H5V3H14V5.25H15.5V3C15.4995 2.60232 15.3414 2.22105 15.0602 1.93984C14.779 1.65864 14.3977 1.50046 14 1.5H5C4.60232 1.50046 4.22105 1.65864 3.93984 1.93984C3.65864 2.22105 3.50046 2.60232 3.5 3V21C3.50046 21.3977 3.65864 21.7789 3.93984 22.0602C4.22105 22.3414 4.60232 22.4995 5 22.5Z" fill="#363A41"/>
<path d="M15.9395 15.4395L18.629 12.75H8V11.25H18.629L15.9395 8.5605L17 7.5L21.5 12L17 16.5L15.9395 15.4395Z" fill="#363A41"/>
</svg>
