<svg width="25" height="24" viewBox="0 0 25 24" fill="none" xmlns="http://www.w3.org/2000/svg">
<rect width="24" height="24" transform="translate(0.5)" fill="white" fill-opacity="0.01" style="mix-blend-mode:multiply"/>
<path d="M12.5 1.5C10.4233 1.5 8.39323 2.11581 6.66652 3.26957C4.9398 4.42332 3.59399 6.0632 2.79927 7.98182C2.00455 9.90045 1.79661 12.0116 2.20176 14.0484C2.6069 16.0852 3.60693 17.9562 5.07538 19.4246C6.54383 20.8931 8.41476 21.8931 10.4516 22.2982C12.4884 22.7034 14.5996 22.4955 16.5182 21.7007C18.4368 20.906 20.0767 19.5602 21.2304 17.8335C22.3842 16.1068 23 14.0767 23 12C23 9.21523 21.8938 6.54451 19.9246 4.57538C17.9555 2.60625 15.2848 1.5 12.5 1.5ZM12.5 6C12.7225 6 12.94 6.06598 13.125 6.1896C13.31 6.31321 13.4542 6.48891 13.5394 6.69448C13.6245 6.90005 13.6468 7.12625 13.6034 7.34448C13.56 7.56271 13.4528 7.76316 13.2955 7.9205C13.1382 8.07783 12.9377 8.18498 12.7195 8.22838C12.5013 8.27179 12.2751 8.24951 12.0695 8.16436C11.8639 8.07922 11.6882 7.93502 11.5646 7.75002C11.441 7.56501 11.375 7.3475 11.375 7.125C11.375 6.82663 11.4935 6.54048 11.7045 6.3295C11.9155 6.11853 12.2016 6 12.5 6ZM15.5 18.0938H9.5V16.4062H11.6563V12.0938H10.25V10.4062H13.3438V16.4062H15.5V18.0938Z" fill="currentColor"/>
</svg>
