<svg width="24" height="24" viewBox="0 0 24 24" fill="none" xmlns="http://www.w3.org/2000/svg">
<path d="M21 7.5H16.5V4.5C16.5 4.10218 16.342 3.72064 16.0607 3.43934C15.7794 3.15804 15.3978 3 15 3H9C8.60218 3 8.22064 3.15804 7.93934 3.43934C7.65804 3.72064 7.5 4.10218 7.5 4.5V7.5H3C2.60218 7.5 2.22064 7.65804 1.93934 7.93934C1.65804 8.22064 1.5 8.60218 1.5 9V19.5C1.5 19.8978 1.65804 20.2794 1.93934 20.5607C2.22064 20.842 2.60218 21 3 21H21C21.3978 21 21.7794 20.842 22.0607 20.5607C22.342 20.2794 22.5 19.8978 22.5 19.5V9C22.5 8.60218 22.342 8.22064 22.0607 7.93934C21.7794 7.65804 21.3978 7.5 21 7.5ZM9 4.5H15V7.5H9V4.5ZM3 19.5V9H21V19.5H3Z" fill="currentColor"/>
<path fill-rule="evenodd" clip-rule="evenodd" d="M18.3677 14.2503C20.009 14.254 21.7162 13.3585 22.435 11.7453L21.0649 11.1348C20.6266 12.1185 19.5206 12.7532 18.3705 12.7503L18.3687 12.7503L5.62021 12.7503L5.61843 12.7503C4.47356 12.7531 3.37862 12.132 2.93246 11.153L1.5675 11.775C2.29717 13.3761 3.98879 14.2539 5.62106 14.2503" fill="currentColor"/>
<path fill-rule="evenodd" clip-rule="evenodd" d="M12.7445 12V15H11.2445V12H12.7445Z" fill="currentColor"/>
</svg>
