<svg width="25" height="24" viewBox="0 0 25 24" fill="none" xmlns="http://www.w3.org/2000/svg">
<rect width="24" height="24" transform="translate(0.5)" fill="white" fill-opacity="0.01" style="mix-blend-mode:multiply"/>
<path d="M21.5 4.5V19.5H3.5V4.5H21.5ZM21.5 3H3.5C3.10218 3 2.72064 3.15804 2.43934 3.43934C2.15804 3.72064 2 4.10218 2 4.5V19.5C2 19.8978 2.15804 20.2794 2.43934 20.5607C2.72064 20.842 3.10218 21 3.5 21H21.5C21.8978 21 22.2794 20.842 22.5607 20.5607C22.842 20.2794 23 19.8978 23 19.5V4.5C23 4.10218 22.842 3.72064 22.5607 3.43934C22.2794 3.15804 21.8978 3 21.5 3Z" fill="#363A41"/>
<path d="M10.25 7.5H5V9H10.25V7.5Z" fill="#363A41"/>
<path d="M8 10.5H5V12H8V10.5Z" fill="#363A41"/>
<path d="M17.75 13.5H13.25C12.6533 13.5 12.081 13.7371 11.659 14.159C11.2371 14.581 11 15.1533 11 15.75V17.25H12.5V15.75C12.5 15.5511 12.579 15.3603 12.7197 15.2197C12.8603 15.079 13.0511 15 13.25 15H17.75C17.9489 15 18.1397 15.079 18.2803 15.2197C18.421 15.3603 18.5 15.5511 18.5 15.75V17.25H20V15.75C20 15.1533 19.7629 14.581 19.341 14.159C18.919 13.7371 18.3467 13.5 17.75 13.5Z" fill="#363A41"/>
<path d="M15.5 12.75C16.0933 12.75 16.6734 12.5741 17.1667 12.2444C17.6601 11.9148 18.0446 11.4462 18.2716 10.8981C18.4987 10.3499 18.5581 9.74667 18.4424 9.16473C18.3266 8.58279 18.0409 8.04824 17.6213 7.62868C17.2018 7.20912 16.6672 6.9234 16.0853 6.80764C15.5033 6.69189 14.9001 6.7513 14.3519 6.97836C13.8038 7.20542 13.3352 7.58994 13.0056 8.08329C12.6759 8.57664 12.5 9.15666 12.5 9.75C12.5 10.5456 12.8161 11.3087 13.3787 11.8713C13.9413 12.4339 14.7044 12.75 15.5 12.75ZM15.5 8.25C15.7967 8.25 16.0867 8.33797 16.3334 8.5028C16.58 8.66762 16.7723 8.90189 16.8858 9.17597C16.9994 9.45006 17.0291 9.75166 16.9712 10.0426C16.9133 10.3336 16.7704 10.6009 16.5607 10.8107C16.3509 11.0204 16.0836 11.1633 15.7926 11.2212C15.5017 11.2791 15.2001 11.2494 14.926 11.1358C14.6519 11.0223 14.4176 10.83 14.2528 10.5834C14.088 10.3367 14 10.0467 14 9.75C14 9.35218 14.158 8.97064 14.4393 8.68934C14.7206 8.40804 15.1022 8.25 15.5 8.25Z" fill="#363A41"/>
</svg>
