<?xml version="1.0" encoding="UTF-8"?><!DOCTYPE svg PUBLIC "-//W3C//DTD SVG 1.1//EN" "http://www.w3.org/Graphics/SVG/1.1/DTD/svg11.dtd"><svg xmlns="http://www.w3.org/2000/svg" xmlns:xlink="http://www.w3.org/1999/xlink"><symbol id="icon-add-plus" viewBox="0 0 25 24"><path fill-opacity=".01" style="mix-blend-mode:multiply" d="M.5 0h24v24H.5z"/><path d="M13.25 11.25V6h-1.5v5.25H6.5v1.5h5.25V18h1.5v-5.25h5.25v-1.5h-5.25z"/></symbol><symbol id="icon-add" viewBox="0 0 16 16"><path fill-opacity=".01" style="mix-blend-mode:multiply" d="M0 0h16v16H0z"/><path d="M8.5 7.5V4h-1v3.5H4v1h3.5V12h1V8.5H12v-1H8.5z"/></symbol><symbol id="icon-arrow-right" viewBox="0 0 25 24"><path fill-opacity=".01" style="mix-blend-mode:multiply" d="M.834 0h24v24h-24z"/><path d="M14.334 4.5l-1.072 1.045 5.684 5.705H3.835v1.5h15.113l-5.685 5.68 1.072 1.07 7.5-7.5-7.5-7.5z"/></symbol><symbol id="icon-arrow-up-right" viewBox="0 0 16 16"><path fill-opacity=".01" style="mix-blend-mode:multiply" d="M0 0h16v16H0z"/><path d="M5 3v1h6.295L3 12.295l.705.705L12 4.705V11h1V3H5z"/></symbol><symbol id="icon-arrows-vertical" viewBox="0 0 24 24"><path fill-opacity=".01" style="mix-blend-mode:multiply" d="M0 0h24v24H0z"/><path d="M20.7 15.45l-2.7 2.7V3h-1.5v15.15l-2.7-2.7-1.05 1.05 4.5 4.5 4.5-4.5-1.05-1.05zM6.75 3l-4.5 4.5L3.3 8.55 6 5.85V21h1.5V5.85l2.7 2.7 1.05-1.05L6.75 3z"/></symbol><symbol id="icon-chart-bar-target" viewBox="0 0 25 24"><path fill-opacity=".01" style="mix-blend-mode:multiply" d="M.5 0h24v24H.5z"/><path d="M23 12.75h-1.5v6H23v-6zM17 3.75h-1.5v6H17v-6z"/><path d="M3.5 1.5H2V21a1.5 1.5 0 001.5 1.5H23V21H3.5v-2.25H20v-6H3.5v-3H14v-6H3.5V1.5zm15 12.75v3h-15v-3h15zm-6-9v3h-9v-3h9z"/></symbol><symbol id="icon-chart-stacked-vertical" viewBox="0 0 24 24"><path fill-opacity=".01" style="mix-blend-mode:multiply" d="M0 0h24v24H0z"/><path d="M21 21V4.5h-6V21h-3V10.5H6V21H3V1.5H1.5V21A1.5 1.5 0 003 22.5h19.5V21H21zM16.5 6h3v7.5h-3V6zm-9 6h3v4.5h-3V12z"/></symbol><symbol id="icon-chevron-down" viewBox="0 0 25 24"><path fill-opacity=".01" style="mix-blend-mode:multiply" d="M.5 0h24v24H.5z"/><path d="M12.5 16.5L5 9l1.05-1.05 6.45 6.45 6.45-6.45L20 9l-7.5 7.5z"/></symbol><symbol id="icon-chevron-left" viewBox="0 0 25 24"><path fill-opacity=".01" style="mix-blend-mode:multiply" d="M.5 0h24v24H.5z"/><path d="M8 12l7.5-7.5 1.05 1.05L10.1 12l6.45 6.45-1.05 1.05L8 12z"/></symbol><symbol id="icon-chevron-right" viewBox="0 0 25 24"><path fill-opacity=".01" style="mix-blend-mode:multiply" d="M.5 0h24v24H.5z"/><path d="M17 12l-7.5 7.5-1.05-1.05L14.9 12 8.45 5.55 9.5 4.5 17 12z"/></symbol><symbol id="icon-current-account" viewBox="0 0 24 24"><path d="M15 7.501h3.912a8.248 8.248 0 00-15.162 4.5h-1.5A9.754 9.754 0 0119.5 5.765V3H21v6h-6v-1.5zM17.249 9.797h1.5v1.5h-1.5v-1.5z"/><path d="M15.375 11.673c.414-.414 1.125-.375 1.125-.375H21v1.5h-6s-.04-.71.375-1.125zM15 12.798h1.499v2.25s-.71.04-1.125-.375c-.414-.414-.375-1.125-.375-1.125v-.75zM16.499 13.549h3s.71-.04 1.125.375c.414.414.375 1.125.375 1.125h-4.5v-1.5zM19.498 15.049H21v.75s.039.71-.375 1.125c-.415.414-1.125.375-1.125.375v-2.25z"/><path d="M14.999 15.797h4.5v1.5h-4.5v-1.5zM17.249 17.3h1.5v1.5h-1.5v-1.5zM9 16.501H5.088a8.248 8.248 0 0011.413 2.415v1.732A9.753 9.753 0 014.5 18.237v2.764H3v-6h6v1.5z"/></symbol><symbol id="icon-customer-service" viewBox="0 0 16 16"><path fill-opacity=".01" style="mix-blend-mode:multiply" d="M0 0h16v16H0z"/><path d="M13 15h-1v-2.5A2.503 2.503 0 009.5 10h-3A2.503 2.503 0 004 12.5V15H3v-2.5A3.504 3.504 0 016.5 9h3a3.504 3.504 0 013.5 3.5V15zM11 3v2c0 .551-.449 1-1 1h-.5a.5.5 0 000 1h.5c1.103 0 2-.897 2-2V3h-1zM8 8C6.07 8 4.5 6.43 4.5 4.5S6.07 1 8 1c.994 0 1.945.425 2.609 1.166l-.745.667A2.504 2.504 0 008 2a2.503 2.503 0 00-2.5 2.5C5.5 5.878 6.621 7 8 7v1z"/></symbol><symbol id="icon-document-multiple-01" viewBox="0 0 24 24"><path fill-opacity=".01" style="mix-blend-mode:multiply" d="M0 0h24v24H0z"/><path d="M3 4.5H1.5v15H3v-15zM6 3H4.5v18H6V3zM19.5 16.5h-9V18h9v-1.5zM19.5 12h-9v1.5h9V12z"/><path d="M22.275 6.975l-5.25-5.25A.68.68 0 0016.5 1.5H9c-.825 0-1.5.675-1.5 1.5v18c0 .825.675 1.5 1.5 1.5h12c.825 0 1.5-.675 1.5-1.5V7.5a.68.68 0 00-.225-.525zM16.5 3.3l4.2 4.2h-4.2V3.3zM21 21H9V3h6v4.5c0 .825.675 1.5 1.5 1.5H21v12z"/></symbol><symbol id="icon-download" viewBox="0 0 20 20"><path fill-opacity=".01" style="mix-blend-mode:multiply" d="M0 0h20v20H0z"/><path d="M16.25 15v2.5H3.75V15H2.5v2.5a1.25 1.25 0 001.25 1.25h12.5a1.25 1.25 0 001.25-1.25V15h-1.25zM16.25 8.75l-.881-.881-4.744 4.737V1.25h-1.25v11.356L4.631 7.87l-.881.881L10 15l6.25-6.25z"/></symbol><symbol id="icon-help" viewBox="0 0 25 24"><path fill-opacity=".01" style="mix-blend-mode:multiply" d="M.5 0h24v24H.5z"/><path d="M12.5 1.5a10.5 10.5 0 100 21 10.5 10.5 0 000-21zm0 19.5a9 9 0 110-18 9 9 0 010 18z"/><path d="M12.5 18.75a1.125 1.125 0 100-2.25 1.125 1.125 0 000 2.25zM13.25 6h-1.125A3.367 3.367 0 008.75 9.375v.375h1.5v-.375A1.875 1.875 0 0112.125 7.5h1.125a1.875 1.875 0 110 3.75h-1.5v3.375h1.5V12.75a3.375 3.375 0 000-6.75z"/></symbol><symbol id="icon-home" viewBox="0 0 24 24"><path fill-opacity=".01" style="mix-blend-mode:multiply" d="M0 0h24v24H0z"/><path d="M12.46 1.66a.757.757 0 00-.933 0L.75 10.065l.932 1.178L3 10.216V19.5A1.503 1.503 0 004.5 21h15a1.503 1.503 0 001.5-1.5v-9.277l1.318 1.027.932-1.179-10.79-8.41zM13.5 19.5h-3v-6h3v6zm1.5 0v-6a1.502 1.502 0 00-1.5-1.5h-3A1.502 1.502 0 009 13.5v6H4.5V9.046L12 3.204l7.5 5.85V19.5H15z"/></symbol><symbol id="icon-identification" viewBox="0 0 25 24"><path fill-opacity=".01" style="mix-blend-mode:multiply" d="M.5 0h24v24H.5z"/><path d="M21.5 4.5v15h-18v-15h18zm0-1.5h-18A1.5 1.5 0 002 4.5v15A1.5 1.5 0 003.5 21h18a1.5 1.5 0 001.5-1.5v-15A1.5 1.5 0 0021.5 3z"/><path d="M10.25 7.5H5V9h5.25V7.5zM8 10.5H5V12h3v-1.5zM17.75 13.5h-4.5A2.25 2.25 0 0011 15.75v1.5h1.5v-1.5a.75.75 0 01.75-.75h4.5a.75.75 0 01.75.75v1.5H20v-1.5a2.25 2.25 0 00-2.25-2.25zM15.5 12.75a3 3 0 100-5.999 3 3 0 000 5.999zm0-4.5a1.5 1.5 0 110 3 1.5 1.5 0 010-3z"/></symbol><symbol id="icon-information-filled" viewBox="0 0 25 24"><path fill-opacity=".01" style="mix-blend-mode:multiply" d="M.5 0h24v24H.5z"/><path d="M12.5 1.5a10.5 10.5 0 100 21 10.5 10.5 0 000-21zm0 4.5a1.125 1.125 0 110 2.25 1.125 1.125 0 010-2.25zm3 12.094h-6v-1.688h2.156v-4.312H10.25v-1.688h3.094v6H15.5v1.688z"/></symbol><symbol id="icon-information" viewBox="0 0 25 24"><path fill-opacity=".01" style="mix-blend-mode:multiply" d="M.5 0h24v24H.5z"/><path d="M13.25 16.5v-6h-3V12h1.5v4.5H9.5V18h6v-1.5h-2.25zM12.5 6a1.125 1.125 0 100 2.25 1.125 1.125 0 000-2.25z"/><path d="M12.5 22.5a10.5 10.5 0 110-21 10.5 10.5 0 010 21zm0-19.5a9 9 0 100 18 9 9 0 000-18z"/></symbol><symbol id="icon-logout" viewBox="0 0 25 24"><path fill-opacity=".01" style="mix-blend-mode:multiply" d="M.5 0h24v24H.5z"/><path d="M5 22.5h9a1.502 1.502 0 001.5-1.5v-2.25H14V21H5V3h9v2.25h1.5V3A1.502 1.502 0 0014 1.5H5A1.502 1.502 0 003.5 3v18A1.502 1.502 0 005 22.5z"/><path d="M15.94 15.44l2.689-2.69H8v-1.5h10.629l-2.69-2.69L17 7.5l4.5 4.5-4.5 4.5-1.06-1.06z"/></symbol><symbol id="icon-money" viewBox="0 0 24 24"><path fill-opacity=".01" style="mix-blend-mode:multiply" d="M0 .001h24v24H0z"/><path d="M22.5 16.501h-21v1.5h21v-1.5zM22.5 19.501h-21v1.5h21v-1.5zM18 7.501a1.5 1.5 0 100 3 1.5 1.5 0 000-3zM12 12.001a3 3 0 110-6 3 3 0 010 6zm0-4.5a1.5 1.5 0 100 3 1.5 1.5 0 000-3zM6 7.501a1.5 1.5 0 100 3 1.5 1.5 0 000-3z"/><path d="M21 15.001H3a1.504 1.504 0 01-1.5-1.5v-9a1.504 1.504 0 011.5-1.5h18a1.504 1.504 0 011.5 1.5v9a1.502 1.502 0 01-1.5 1.5zm0-10.5H3v9h18v-9z"/></symbol><symbol id="icon-overflow-menu-horizontal" viewBox="0 0 24 24"><path fill-opacity=".01" style="mix-blend-mode:multiply" d="M0 0h24v24H0z"/><path d="M6 13.5a1.5 1.5 0 100-3 1.5 1.5 0 000 3zM12 13.5a1.5 1.5 0 100-3 1.5 1.5 0 000 3zM18 13.5a1.5 1.5 0 100-3 1.5 1.5 0 000 3z"/></symbol><symbol id="icon-piggy-bank-slot" viewBox="0 0 24 24"><path fill-opacity=".01" style="mix-blend-mode:multiply" d="M0 .001h24v24H0z"/><path d="M15 8.251H9.75v1.5H15v-1.5z"/><path d="M21.75 9.751h-1.515a4.334 4.334 0 00-1.485-3.11V3.75a.75.75 0 00-1.2-.6l-2.8 2.1h-3.5c-4.132 0-7.098 2.43-7.461 6H3.75a.75.75 0 01-.75-.75v-1.5H1.5v1.5a2.252 2.252 0 002.25 2.25h.053a6.88 6.88 0 002.947 4.917v2.583a.75.75 0 00.75.75h3a.75.75 0 00.75-.75v-1.5h2.25v1.5a.75.75 0 00.75.75h3a.75.75 0 00.75-.75v-2.522A3.82 3.82 0 0020.114 15h1.636a.75.75 0 00.75-.75v-3.75a.75.75 0 00-.75-.75zm-.75 3.75h-2.157c-.229 2.065-.618 2.614-2.343 3.237V19.5H15v-2.25H9.75v2.25h-1.5v-2.717a5.26 5.26 0 01-3-4.783c0-3.627 3.014-5.25 6-5.25h4l2-1.5v2.082c1.814 1.395 1.434 2.39 1.514 3.918H21v2.25z"/></symbol><symbol id="icon-portfolio" viewBox="0 0 24 24"><path d="M21 7.5h-4.5v-3A1.5 1.5 0 0015 3H9a1.5 1.5 0 00-1.5 1.5v3H3A1.5 1.5 0 001.5 9v10.5A1.5 1.5 0 003 21h18a1.5 1.5 0 001.5-1.5V9A1.5 1.5 0 0021 7.5zm-12-3h6v3H9v-3zm-6 15V9h18v10.5H3z"/><path fill-rule="evenodd" clip-rule="evenodd" d="M18.368 14.25c1.641.004 3.348-.892 4.067-2.505l-1.37-.61c-.438.983-1.544 1.618-2.695 1.615H5.618c-1.144.003-2.24-.618-2.686-1.597l-1.365.622c.73 1.601 2.422 2.479 4.054 2.475"/><path fill-rule="evenodd" clip-rule="evenodd" d="M12.745 12v3h-1.5v-3h1.5z"/></symbol><symbol id="icon-renew" viewBox="0 0 25 24"><path fill-opacity=".01" style="mix-blend-mode:multiply" d="M.5 0h24v24H.5z"/><path d="M9.5 7.5H5.585A8.25 8.25 0 0120.75 12h1.5A9.75 9.75 0 005 5.76V3H3.5v6h6V7.5zM15.5 16.5h3.915A8.25 8.25 0 014.25 12h-1.5A9.75 9.75 0 0020 18.24V21h1.5v-6h-6v1.5z"/></symbol><symbol id="icon-settings" viewBox="0 0 25 24"><path fill-opacity=".01" style="mix-blend-mode:multiply" d="M.5 0h24v24H.5z"/><path d="M20.75 12.57V12v-.577l1.44-1.26a1.5 1.5 0 00.285-1.913l-1.77-3a1.5 1.5 0 00-1.298-.75 1.5 1.5 0 00-.48.075l-1.822.615a8.502 8.502 0 00-.983-.562l-.382-1.89a1.5 1.5 0 00-1.5-1.208h-3.51a1.5 1.5 0 00-1.5 1.208l-.383 1.89a8.608 8.608 0 00-.99.562l-1.785-.645a1.5 1.5 0 00-.48-.045 1.5 1.5 0 00-1.297.75l-1.77 3a1.5 1.5 0 00.307 1.883L4.25 11.43v1.148l-1.418 1.26a1.5 1.5 0 00-.307 1.912l1.77 3a1.5 1.5 0 001.297.75c.163.001.326-.024.48-.075l1.823-.615c.315.21.643.397.982.563l.383 1.89a1.5 1.5 0 001.5 1.207h3.54a1.5 1.5 0 001.5-1.207l.382-1.89c.343-.166.673-.354.99-.563l1.815.615c.155.051.317.076.48.075a1.5 1.5 0 001.298-.75l1.71-3a1.5 1.5 0 00-.308-1.882L20.75 12.57zM19.407 18l-2.572-.87c-.602.51-1.29.909-2.033 1.178L14.27 21h-3.54l-.533-2.662a7.023 7.023 0 01-2.025-1.178l-2.58.84-1.77-3 2.04-1.8a6.675 6.675 0 010-2.347L3.822 9l1.77-3 2.573.87a6.645 6.645 0 012.032-1.177L10.73 3h3.54l.532 2.663c.737.276 1.421.674 2.025 1.177l2.58-.84 1.77 3-2.04 1.8a6.674 6.674 0 010 2.348L21.177 15l-1.77 3z"/><path d="M12.5 16.5A4.5 4.5 0 1117 12a4.453 4.453 0 01-4.5 4.5zm0-7.5a2.932 2.932 0 00-3 3 2.932 2.932 0 003 3 2.933 2.933 0 003-3 2.931 2.931 0 00-3-3z"/></symbol></svg>