<svg width="24" height="24" viewBox="0 0 24 24" fill="none" xmlns="http://www.w3.org/2000/svg">
<rect width="24" height="24" transform="translate(0 0.000976562)" fill="white" fill-opacity="0.01" style="mix-blend-mode:multiply"/>
<path d="M22.5 16.501H1.5V18.001H22.5V16.501Z" fill="#161616"/>
<path d="M22.5 19.501H1.5V21.001H22.5V19.501Z" fill="#161616"/>
<path d="M18 7.50098C17.7033 7.50098 17.4133 7.58895 17.1666 7.75377C16.92 7.91859 16.7277 8.15286 16.6142 8.42695C16.5006 8.70104 16.4709 9.00264 16.5288 9.29361C16.5867 9.58458 16.7296 9.85186 16.9393 10.0616C17.1491 10.2714 17.4164 10.4143 17.7074 10.4722C17.9983 10.53 18.2999 10.5003 18.574 10.3868C18.8481 10.2733 19.0824 10.081 19.2472 9.83433C19.412 9.58766 19.5 9.29765 19.5 9.00098C19.5 8.60315 19.342 8.22162 19.0607 7.94032C18.7794 7.65901 18.3978 7.50098 18 7.50098Z" fill="#161616"/>
<path d="M12 12.001C11.4067 12.001 10.8266 11.825 10.3333 11.4954C9.83994 11.1657 9.45542 10.6972 9.22836 10.149C9.0013 9.60085 8.94189 8.99765 9.05764 8.41571C9.1734 7.83376 9.45912 7.29921 9.87868 6.87966C10.2982 6.4601 10.8328 6.17438 11.4147 6.05862C11.9967 5.94286 12.5999 6.00227 13.1481 6.22934C13.6962 6.4564 14.1648 6.84092 14.4944 7.33427C14.8241 7.82761 15 8.40763 15 9.00098C14.9991 9.79635 14.6827 10.5589 14.1203 11.1213C13.5579 11.6837 12.7954 12.0001 12 12.001ZM12 7.50098C11.7033 7.50098 11.4133 7.58895 11.1666 7.75377C10.92 7.91859 10.7277 8.15286 10.6142 8.42695C10.5006 8.70104 10.4709 9.00264 10.5288 9.29361C10.5867 9.58458 10.7296 9.85186 10.9393 10.0616C11.1491 10.2714 11.4164 10.4143 11.7074 10.4722C11.9983 10.53 12.2999 10.5003 12.574 10.3868C12.8481 10.2733 13.0824 10.081 13.2472 9.83433C13.412 9.58766 13.5 9.29765 13.5 9.00098C13.4996 8.60327 13.3414 8.22197 13.0602 7.94075C12.779 7.65954 12.3977 7.50137 12 7.50098Z" fill="#161616"/>
<path d="M6 7.50098C5.70333 7.50098 5.41332 7.58895 5.16664 7.75377C4.91997 7.91859 4.72771 8.15286 4.61418 8.42695C4.50065 8.70104 4.47094 9.00264 4.52882 9.29361C4.5867 9.58458 4.72956 9.85186 4.93934 10.0616C5.14912 10.2714 5.41639 10.4143 5.70736 10.4722C5.99834 10.53 6.29994 10.5003 6.57403 10.3868C6.84811 10.2733 7.08238 10.081 7.2472 9.83433C7.41203 9.58766 7.5 9.29765 7.5 9.00098C7.5 8.60315 7.34196 8.22162 7.06066 7.94032C6.77936 7.65901 6.39782 7.50098 6 7.50098Z" fill="#161616"/>
<path d="M21 15.001H3C2.60249 15 2.22154 14.8416 1.94046 14.5605C1.65937 14.2794 1.50101 13.8985 1.5 13.501V4.50098C1.50101 4.10346 1.65937 3.72252 1.94046 3.44143C2.22154 3.16035 2.60249 3.00199 3 3.00098H21C21.3975 3.00199 21.7785 3.16035 22.0595 3.44143C22.3406 3.72252 22.499 4.10346 22.5 4.50098V13.501C22.4995 13.8986 22.3413 14.2799 22.0601 14.561C21.7789 14.8422 21.3977 15.0004 21 15.001ZM21 4.50098H3V13.501H21V4.50098Z" fill="#161616"/>
</svg>
