<svg width="25" height="24" viewBox="0 0 25 24" fill="none" xmlns="http://www.w3.org/2000/svg">
<rect width="24" height="24" transform="translate(0.5)" fill="white" fill-opacity="0.01" style="mix-blend-mode:multiply"/>
<path d="M20.7499 12.5701C20.7499 12.3826 20.7499 12.1951 20.7499 12.0001C20.7499 11.8051 20.7499 11.6176 20.7499 11.4226L22.1899 10.1626C22.4554 9.9286 22.6296 9.60833 22.6817 9.25836C22.7339 8.90839 22.6606 8.55125 22.4749 8.25006L20.7049 5.25006C20.5734 5.02226 20.3843 4.83305 20.1566 4.70141C19.9288 4.56977 19.6705 4.50033 19.4074 4.50006C19.2444 4.49881 19.0823 4.52414 18.9274 4.57506L17.1049 5.19006C16.7903 4.98097 16.4621 4.79305 16.1224 4.62756L15.7399 2.73756C15.6714 2.39226 15.4835 2.08209 15.2093 1.86134C14.9351 1.64058 14.5919 1.52332 14.2399 1.53006H10.7299C10.378 1.52332 10.0348 1.64058 9.7606 1.86134C9.48638 2.08209 9.29853 2.39226 9.22995 2.73756L8.84745 4.62756C8.50539 4.79301 8.17467 4.98092 7.85745 5.19006L6.07245 4.54506C5.91592 4.50428 5.75382 4.48908 5.59245 4.50006C5.3294 4.50033 5.07105 4.56977 4.84332 4.70141C4.61558 4.83305 4.42647 5.02226 4.29495 5.25006L2.52495 8.25006C2.34989 8.5508 2.28483 8.90305 2.34093 9.24648C2.39703 9.58991 2.57079 9.90316 2.83245 10.1326L4.24995 11.4301C4.24995 11.6176 4.24995 11.8051 4.24995 12.0001C4.24995 12.1951 4.24995 12.3826 4.24995 12.5776L2.83245 13.8376C2.5634 14.0686 2.38489 14.3874 2.32859 14.7375C2.2723 15.0876 2.34187 15.4464 2.52495 15.7501L4.29495 18.7501C4.42647 18.9779 4.61558 19.1671 4.84332 19.2987C5.07105 19.4304 5.3294 19.4998 5.59245 19.5001C5.75546 19.5013 5.91758 19.476 6.07245 19.4251L7.89495 18.8101C8.2096 19.0192 8.53783 19.2071 8.87745 19.3726L9.25995 21.2626C9.32853 21.6079 9.51638 21.918 9.7906 22.1388C10.0648 22.3595 10.408 22.4768 10.7599 22.4701H14.2999C14.6519 22.4768 14.9951 22.3595 15.2693 22.1388C15.5435 21.918 15.7314 21.6079 15.7999 21.2626L16.1824 19.3726C16.5245 19.2071 16.8552 19.0192 17.1724 18.8101L18.9874 19.4251C19.1423 19.476 19.3044 19.5013 19.4674 19.5001C19.7305 19.4998 19.9888 19.4304 20.2166 19.2987C20.4443 19.1671 20.6334 18.9779 20.7649 18.7501L22.4749 15.7501C22.65 15.4493 22.7151 15.0971 22.659 14.7536C22.6029 14.4102 22.4291 14.097 22.1674 13.8676L20.7499 12.5701ZM19.4074 18.0001L16.8349 17.1301C16.2327 17.6401 15.5445 18.0389 14.8024 18.3076L14.2699 21.0001H10.7299L10.1974 18.3376C9.46126 18.0612 8.77673 17.6632 8.17245 17.1601L5.59245 18.0001L3.82245 15.0001L5.86245 13.2001C5.72377 12.4237 5.72377 11.6289 5.86245 10.8526L3.82245 9.00006L5.59245 6.00006L8.16495 6.87006C8.76715 6.35998 9.4554 5.96125 10.1974 5.69256L10.7299 3.00006H14.2699L14.8024 5.66256C15.5386 5.93888 16.2232 6.33692 16.8274 6.84006L19.4074 6.00006L21.1774 9.00006L19.1374 10.8001C19.2761 11.5764 19.2761 12.3712 19.1374 13.1476L21.1774 15.0001L19.4074 18.0001Z" fill="#363A41"/>
<path d="M12.4999 16.5001C11.6099 16.5001 10.7399 16.2361 9.99988 15.7417C9.25986 15.2472 8.68308 14.5444 8.34249 13.7221C8.00189 12.8999 7.91278 11.9951 8.08641 11.1222C8.26005 10.2492 8.68863 9.44742 9.31797 8.81808C9.9473 8.18875 10.7491 7.76016 11.622 7.58653C12.495 7.41289 13.3998 7.50201 14.222 7.8426C15.0443 8.1832 15.7471 8.75997 16.2416 9.5C16.736 10.24 16.9999 11.11 16.9999 12.0001C17.006 12.5927 16.8937 13.1805 16.6697 13.7292C16.4456 14.2779 16.1144 14.7764 15.6953 15.1955C15.2763 15.6145 14.7778 15.9458 14.2291 16.1698C13.6804 16.3938 13.0926 16.5061 12.4999 16.5001ZM12.4999 9.00006C12.1035 8.99083 11.7092 9.06211 11.3411 9.2096C10.9729 9.3571 10.6385 9.57774 10.3581 9.85818C10.0776 10.1386 9.85698 10.473 9.70949 10.8412C9.56199 11.2093 9.49071 11.6036 9.49995 12.0001C9.49071 12.3966 9.56199 12.7908 9.70949 13.1589C9.85698 13.5271 10.0776 13.8615 10.3581 14.1419C10.6385 14.4224 10.9729 14.643 11.3411 14.7905C11.7092 14.938 12.1035 15.0093 12.4999 15.0001C12.8964 15.0093 13.2907 14.938 13.6588 14.7905C14.027 14.643 14.3614 14.4224 14.6418 14.1419C14.9223 13.8615 15.1429 13.5271 15.2904 13.1589C15.4379 12.7908 15.5092 12.3966 15.4999 12.0001C15.5092 11.6036 15.4379 11.2093 15.2904 10.8412C15.1429 10.473 14.9223 10.1386 14.6418 9.85818C14.3614 9.57774 14.027 9.3571 13.6588 9.2096C13.2907 9.06211 12.8964 8.99083 12.4999 9.00006Z" fill="#363A41"/>
</svg>
