<svg width="25" height="24" viewBox="0 0 25 24" fill="none" xmlns="http://www.w3.org/2000/svg">
<rect width="24" height="24" transform="translate(0.5)" fill="white" fill-opacity="0.01" style="mix-blend-mode:multiply"/>
<path d="M12.5 1.5C10.4233 1.5 8.39323 2.11581 6.66652 3.26957C4.9398 4.42332 3.59399 6.0632 2.79927 7.98182C2.00455 9.90045 1.79661 12.0116 2.20176 14.0484C2.6069 16.0852 3.60693 17.9562 5.07538 19.4246C6.54383 20.8931 8.41476 21.8931 10.4516 22.2982C12.4884 22.7034 14.5996 22.4955 16.5182 21.7007C18.4368 20.906 20.0767 19.5602 21.2304 17.8335C22.3842 16.1068 23 14.0767 23 12C23 9.21523 21.8938 6.54451 19.9246 4.57538C17.9555 2.60625 15.2848 1.5 12.5 1.5ZM12.5 21C10.72 21 8.97992 20.4722 7.49987 19.4832C6.01983 18.4943 4.86628 17.0887 4.18509 15.4442C3.5039 13.7996 3.32567 11.99 3.67294 10.2442C4.0202 8.49836 4.87737 6.89471 6.13604 5.63604C7.39472 4.37737 8.99836 3.5202 10.7442 3.17293C12.49 2.82567 14.2996 3.0039 15.9442 3.68508C17.5887 4.36627 18.9943 5.51983 19.9832 6.99987C20.9722 8.47991 21.5 10.22 21.5 12C21.5 14.3869 20.5518 16.6761 18.864 18.364C17.1761 20.0518 14.887 21 12.5 21Z" fill="currentColor"/>
<path d="M12.5 18.75C13.1213 18.75 13.625 18.2463 13.625 17.625C13.625 17.0037 13.1213 16.5 12.5 16.5C11.8787 16.5 11.375 17.0037 11.375 17.625C11.375 18.2463 11.8787 18.75 12.5 18.75Z" fill="currentColor"/>
<path d="M13.25 6H12.125C11.6815 5.99901 11.2422 6.08563 10.8323 6.25489C10.4224 6.42415 10.0499 6.67272 9.73631 6.98631C9.42272 7.2999 9.17416 7.67235 9.0049 8.08227C8.83564 8.4922 8.74902 8.93151 8.75 9.375V9.75H10.25V9.375C10.25 8.87772 10.4475 8.40081 10.7992 8.04917C11.1508 7.69754 11.6277 7.5 12.125 7.5H13.25C13.7473 7.5 14.2242 7.69754 14.5758 8.04917C14.9275 8.40081 15.125 8.87772 15.125 9.375C15.125 9.87228 14.9275 10.3492 14.5758 10.7008C14.2242 11.0525 13.7473 11.25 13.25 11.25H11.75V14.625H13.25V12.75C14.1451 12.75 15.0036 12.3944 15.6365 11.7615C16.2694 11.1285 16.625 10.2701 16.625 9.375C16.625 8.47989 16.2694 7.62145 15.6365 6.98851C15.0036 6.35558 14.1451 6 13.25 6Z" fill="currentColor"/>
</svg>
