<svg width="24" height="24" viewBox="0 0 24 24" fill="none" xmlns="http://www.w3.org/2000/svg">
<rect width="24" height="24" transform="translate(0 0.000976562)" fill="white" fill-opacity="0.01" style="mix-blend-mode:multiply"/>
<path d="M15 8.25098H9.75V9.75098H15V8.25098Z" fill="#161616"/>
<path d="M21.75 9.75098H20.235C20.2134 9.15849 20.0704 8.57674 19.815 8.0417C19.5596 7.50666 19.1971 7.02971 18.75 6.64035V3.75098C18.75 3.61169 18.7112 3.47516 18.638 3.35668C18.5648 3.2382 18.46 3.14245 18.3354 3.08016C18.2108 3.01787 18.0714 2.9915 17.9326 3.00401C17.7939 3.01652 17.6614 3.06741 17.55 3.15098L14.7499 5.25098H11.25C7.11788 5.25098 4.15245 7.68188 3.78862 11.251H3.75C3.55114 11.2508 3.36048 11.1717 3.21987 11.0311C3.07925 10.8905 3.00018 10.6998 3 10.501V9.00098H1.5V10.501C1.50066 11.0975 1.73792 11.6694 2.15973 12.0912C2.58155 12.5131 3.15346 12.7503 3.75 12.751H3.8025C3.91132 13.7344 4.23097 14.6827 4.73963 15.5313C5.24829 16.38 5.93401 17.1089 6.75 17.6684V20.251C6.75 20.4499 6.82902 20.6407 6.96967 20.7813C7.11032 20.922 7.30109 21.001 7.5 21.001H10.5C10.6989 21.001 10.8897 20.922 11.0303 20.7813C11.171 20.6407 11.25 20.4499 11.25 20.251V18.751H13.5V20.251C13.5 20.4499 13.579 20.6407 13.7197 20.7813C13.8603 20.922 14.0511 21.001 14.25 21.001H17.25C17.4489 21.001 17.6397 20.922 17.7803 20.7813C17.921 20.6407 18 20.4499 18 20.251V17.7289C18.5418 17.472 19.0154 17.0912 19.3827 16.6173C19.75 16.1434 20.0005 15.5897 20.1141 15.001H21.75C21.9489 15.001 22.1397 14.922 22.2803 14.7813C22.421 14.6407 22.5 14.4499 22.5 14.251V10.501C22.5 10.3021 22.421 10.1113 22.2803 9.97065C22.1397 9.82999 21.9489 9.75098 21.75 9.75098ZM21 13.501H18.843C18.6141 15.5657 18.2254 16.115 16.5 16.7375V19.501H15V17.251H9.75V19.501H8.25V16.7844C7.34693 16.3548 6.58506 15.6766 6.05371 14.8294C5.52237 13.9822 5.24357 13.001 5.25 12.001C5.25 8.37443 8.26357 6.75098 11.25 6.75098H15.2501L17.25 5.25098V7.33328C19.0637 8.72775 18.6845 9.72278 18.7637 11.251H21V13.501Z" fill="#161616"/>
</svg>
