<svg width="24" height="24" viewBox="0 0 24 24" fill="none" xmlns="http://www.w3.org/2000/svg">
<path d="M15 7.50098H18.9116C17.9419 6.01035 16.5163 4.87306 14.8475 4.25869C13.1787 3.64432 11.356 3.58577 9.65115 4.09176C7.94633 4.59775 6.45071 5.64119 5.38727 7.0665C4.32383 8.49181 3.74953 10.2227 3.75 12.001H2.25C2.25074 9.99637 2.86913 8.04067 4.021 6.40004C5.17287 4.75942 6.80228 3.51355 8.68748 2.83201C10.5727 2.15046 12.6221 2.06634 14.5568 2.59108C16.4915 3.11582 18.2175 4.22395 19.5 5.76465V3.00098H21V9.00098H15V7.50098Z" fill="#363A41"/>
<path d="M17.249 9.79712H18.749V11.2971H17.249V9.79712Z" fill="#363A41"/>
<path d="M15.3746 11.6728C15.7888 11.2586 16.4995 11.2981 16.4995 11.2981H20.9995V12.7981H14.9995C14.9995 12.7981 14.9603 12.0871 15.3746 11.6728Z" fill="#363A41"/>
<path d="M14.9995 12.7981L16.499 12.7978V15.0478C16.499 15.0478 15.7882 15.0871 15.374 14.6728C14.9598 14.2586 14.999 13.5478 14.999 13.5478L14.9995 12.7981Z" fill="#363A41"/>
<path d="M16.499 13.5489H19.499C19.499 13.5489 20.2098 13.5094 20.624 13.9236C21.0382 14.3378 20.999 15.0489 20.999 15.0489H16.499V13.5489Z" fill="#363A41"/>
<path d="M19.4985 15.0486L20.999 15.0489L20.9985 15.7986C20.9985 15.7986 21.0378 16.5094 20.6235 16.9236C20.2093 17.3378 19.4985 17.2986 19.4985 17.2986V15.0486Z" fill="#363A41"/>
<path d="M14.999 15.7971H19.499V17.2971H14.999V15.7971Z" fill="#363A41"/>
<path d="M17.249 17.2993H18.749V18.7993H17.249V17.2993Z" fill="#363A41"/>
<path d="M9 16.501L5.08838 16.501C6.05814 17.9916 7.4837 19.1289 9.15252 19.7433C10.8213 20.3576 12.644 20.4162 14.3489 19.9102C15.1153 19.6827 15.8395 19.3466 16.5012 18.916C16.5012 19.7433 16.5011 20.1103 16.5012 20.6484C16.1185 20.8477 15.7215 21.0221 15.3125 21.1699C13.4273 21.8515 11.3779 21.9356 9.44321 21.4109C7.5085 20.8861 5.78246 19.778 4.5 18.2373L4.5 21.001H3L3 15.001H9V16.501Z" fill="#363A41"/>
</svg>
