<svg width="25" height="24" viewBox="0 0 25 24" fill="none" xmlns="http://www.w3.org/2000/svg">
<rect width="24" height="24" transform="translate(0.5)" fill="white" fill-opacity="0.01" style="mix-blend-mode:multiply"/>
<path d="M9.5 7.50003H5.58501C6.55502 6.00927 7.98082 4.8719 9.64987 4.25746C11.3189 3.64302 13.1419 3.58441 14.8469 4.09037C16.552 4.59633 18.0479 5.63976 19.1117 7.06512C20.1755 8.49049 20.7501 10.2215 20.75 12H22.25C22.2521 9.99415 21.6354 8.03644 20.4841 6.39386C19.3328 4.75128 17.7029 3.50377 15.8166 2.82143C13.9304 2.1391 11.8796 2.05515 9.94384 2.58103C8.00812 3.10692 6.28171 4.21704 5.00001 5.76003V3.00003H3.50001V9.00003H9.5V7.50003Z" fill="currentColor"/>
<path d="M15.5 16.5H19.415C18.445 17.9908 17.0192 19.1282 15.3501 19.7426C13.6811 20.357 11.8582 20.4156 10.1531 19.9097C8.448 19.4037 6.95209 18.3603 5.88832 16.9349C4.82455 15.5096 4.24989 13.7786 4.25001 12H2.75001C2.74794 14.0059 3.3646 15.9636 4.5159 17.6062C5.6672 19.2488 7.29711 20.4963 9.18337 21.1786C11.0696 21.861 13.1204 21.9449 15.0562 21.419C16.9919 20.8931 18.7183 19.783 20 18.24V21H21.5V15H15.5V16.5Z" fill="currentColor"/>
</svg>
